<svg width="148" height="148" viewBox="0 0 148 148" fill="none" xmlns="http://www.w3.org/2000/svg">
<path d="M101.485 5.18359C104.136 4.73238 106.862 5.11636 109.285 6.28223L135.638 18.9619H135.639C137.844 20.0237 139.706 21.6871 141.008 23.7598C142.31 25.832 143 28.2295 143 30.6768V116.659C143 119.107 142.31 121.505 141.008 123.577C139.706 125.65 137.844 127.312 135.639 128.374V128.375L109.285 141.055C107.682 141.826 105.938 142.261 104.16 142.329C102.382 142.397 100.61 142.098 98.9521 141.452V141.453C97.3298 140.821 95.8548 139.868 94.6113 138.655L47.2812 95.4766L28.624 109.638L28.625 109.639C26.7033 111.098 24.3313 111.838 21.9209 111.73C19.5108 111.623 17.214 110.675 15.4297 109.052L8.38184 102.641L8.38086 102.64C7.31756 101.672 6.46751 100.493 5.88574 99.1777C5.30411 97.8631 5.00307 96.4415 5.00195 95.0039C5.00086 93.5661 5.30011 92.1438 5.87988 90.8281C6.45968 89.5124 7.30728 88.3317 8.36914 87.3623L8.37012 87.3613L23.3779 73.668L8.36914 59.9756C7.30677 59.0063 6.45807 57.8257 5.87793 56.5098C5.29782 55.1938 4.99891 53.7712 5 52.333C5.00109 50.8947 5.30256 49.4724 5.88477 48.1572C6.46694 46.8422 7.31697 45.663 8.38086 44.6953L15.4287 38.2842C17.2134 36.6608 19.5107 35.7134 21.9209 35.6064C24.3307 35.4996 26.7018 36.2398 28.623 37.6982L47.2803 51.8613L94.623 8.6709C96.5043 6.84231 98.8961 5.62438 101.485 5.18359ZM76.0098 73.667L101.02 92.6523V54.6826L76.0098 73.667Z" fill="#0086D1" stroke="white" stroke-width="10"/>
</svg>
